<?xml version="1.0" encoding="UTF-8" standalone="no"?>
<svg
   width="32"
   height="32"
   viewBox="0 0 32 32"
   fill="none"
   version="1.1"
   id="svg6"
   sodipodi:docname="avalanche.svg"
   inkscape:version="1.2 (dc2aeda, 2022-05-15)"
   xmlns:inkscape="http://www.inkscape.org/namespaces/inkscape"
   xmlns:sodipodi="http://sodipodi.sourceforge.net/DTD/sodipodi-0.dtd"
   xmlns="http://www.w3.org/2000/svg"
   xmlns:svg="http://www.w3.org/2000/svg">
  <defs
     id="defs10" />
  <sodipodi:namedview
     id="namedview8"
     pagecolor="#ffffff"
     bordercolor="#000000"
     borderopacity="0.25"
     inkscape:showpageshadow="2"
     inkscape:pageopacity="0.0"
     inkscape:pagecheckerboard="0"
     inkscape:deskcolor="#d1d1d1"
     showgrid="false"
     inkscape:zoom="3.1890097"
     inkscape:cx="83.097897"
     inkscape:cy="104.26434"
     inkscape:window-width="2056"
     inkscape:window-height="1257"
     inkscape:window-x="1080"
     inkscape:window-y="635"
     inkscape:window-maximized="0"
     inkscape:current-layer="svg6" />
  <rect
     x="6.1038613"
     y="5.4753661"
     width="19.770971"
     height="17.981358"
     fill="#ffffff"
     id="rect2"
     style="stroke-width:0.0213049" />
  <path
     fill-rule="evenodd"
     clip-rule="evenodd"
     d="M 32,16 C 32,24.836644 24.836644,32 16,32 7.1634407,32 0,24.836644 0,16 0,7.1634407 7.1634407,0 16,0 24.836644,0 32,7.1634407 32,16 Z M 11.466056,22.36719 H 8.3609055 c -0.6524847,0 -0.9747857,0 -1.1713023,-0.125699 C 6.9773422,22.103862 6.8476378,21.875899 6.8319148,21.624288 6.8201119,21.39249 6.9812836,21.10939 7.3035846,20.543382 L 14.970589,7.029241 c 0.326242,-0.5738695 0.491312,-0.8608042 0.699632,-0.9669241 0.224043,-0.1139813 0.491334,-0.1139813 0.715377,0 0.208319,0.1061199 0.373411,0.3930546 0.699632,0.9669241 l 1.576181,2.751403 0.008,0.01404 c 0.352363,0.615649 0.531047,0.927851 0.609066,1.255521 0.08646,0.357688 0.08646,0.73502 0,1.092708 -0.07862,0.330163 -0.255489,0.644624 -0.613177,1.269582 l -4.027292,7.119106 -0.01042,0.01824 c -0.354685,0.620719 -0.534434,0.935328 -0.783553,1.172665 -0.271211,0.259494 -0.597454,0.448043 -0.955142,0.554355 -0.326243,0.09033 -0.691771,0.09033 -1.422871,0.09033 z m 7.841534,0 h 4.449321 c 0.656405,0 0.986631,0 1.183275,-0.129534 0.212197,-0.137629 0.345779,-0.36964 0.35771,-0.621038 0.01129,-0.224341 -0.146365,-0.496405 -0.455286,-1.029518 -0.01065,-0.01815 -0.02131,-0.03662 -0.03217,-0.05541 l -2.228708,-3.812645 -0.02535,-0.04293 c -0.313182,-0.529598 -0.471265,-0.797039 -0.674301,-0.90041 -0.223915,-0.114003 -0.487456,-0.114003 -0.711393,0 -0.204399,0.10612 -0.36947,0.385193 -0.695712,0.947259 l -2.220783,3.812666 -0.0076,0.01312 c -0.325092,0.561172 -0.487563,0.841609 -0.475845,1.071702 0.01572,0.251611 0.145427,0.483409 0.357667,0.621038 0.192618,0.125699 0.52278,0.125699 1.179185,0.125699 z"
     fill="#e84142"
     id="path4"
     style="stroke-width:0.0213049" />
</svg>
